<svg xmlns="http://www.w3.org/2000/svg" viewBox="0 0 971 244"><defs><style>.fil3{fill:#373435;fill-rule:nonzero}</style></defs><g id="Layer_x0020_1"><g id="_1948705619248"><ellipse cx="528.2" cy="101.4" rx="100" ry="100.4" fill="#2c816b"/><path d="M591.9 90.3l-94.3-56c-7.6-4.5-19.4-.1-19.4 11.1v112c0 10 11 16 19.4 11l94.3-56a13 13 0 000-22.1zm-27.5 18.5l-56 33.3a8.6 8.6 0 01-13-7.4V68a8.6 8.6 0 0113-7.4l56 33.4a8.6 8.6 0 010 14.8z" fill="#fff" fill-opacity=".4"/><path d="M508.3 60.6L564.4 94a8.6 8.6 0 010 14.8l-56 33.3a8.6 8.6 0 01-13-7.4V68a8.6 8.6 0 0113-7.4z" fill="#fff"/><path class="fil3" d="M67 21.9v158.8H27.8V95.4a154 154 0 00-.9-22.2 8.4 8.4 0 00-4.8-5.7 50 50 0 00-17.6-1.9H.5V47.2c19-4 33.5-12.5 43.4-25.3H67z"/><path id="1" class="fil3" d="M167.4 153.6v27H80.6V158c25.8-42.2 41.1-68.3 46-78.3 4.8-10 7.3-17.9 7.3-23.5 0-4.3-.8-7.5-2.3-9.7-1.4-2-3.7-3.1-6.7-3.1s-5.2 1.1-6.7 3.5c-1.5 2.3-2.2 7-2.2 14v15H80.6V70c0-8.9.5-15.9 1.4-21a37 37 0 0120.7-26.4 50.6 50.6 0 0120.6-3.8c15.7 0 27.6 3.9 35.6 11.7 8 7.8 12 17.7 12 29.6 0 9.1-2.2 18.7-6.7 28.9-4.6 10.1-18 31.6-40 64.5h43.2z"/><path id="2" class="fil3" d="M256.8 90.8c6 2 10.4 5.4 13.4 10 2.9 4.6 4.3 15.4 4.3 32.4 0 12.6-1.4 22.4-4.3 29.4-2.8 7-7.8 12.2-14.8 15.9-7 3.6-16 5.4-27 5.4a57.7 57.7 0 01-29.4-6.3 30.6 30.6 0 01-14-15.6c-2.3-6-3.4-16.7-3.4-31.8v-12.6h39.3v25.9c0 6.9.4 11.3 1.3 13.1.8 1.9 2.6 2.8 5.4 2.8 3 0 5.1-1.2 6-3.5 1-2.4 1.5-8.5 1.5-18.5v-11c0-6-.6-10.5-2-13.3a10.1 10.1 0 00-6-5.6c-2.7-.9-7.9-1.4-15.6-1.5V83a80 80 0 0017.4-1.2 7.6 7.6 0 004.8-4.7c1-2.4 1.4-6.2 1.4-11.3V57c0-5.6-.5-9.2-1.7-11-1.1-1.8-2.9-2.6-5.3-2.6-2.8 0-4.6.9-5.6 2.7-1 2-1.6 5.9-1.6 12v13h-39.3V57.5c0-15.1 3.4-25.3 10.3-30.6 7-5.4 17.9-8 33-8 18.7 0 31.5 3.6 38.2 11 6.7 7.4 10 17.7 10 30.8 0 9-1.2 15.3-3.6 19.3a33 33 0 01-12.7 10.8z"/><path id="3" class="fil3" d="M416.7 21.9v158.8h-36V73.5l-14.4 107.2h-25.2l-15-104.8-.1 104.8h-36V21.9H343l5 33.8 5.7 40.3 9.4-74.1h53.5z"/><path class="fil3" d="M732.4 21.9l-20.8 158.8h-62.3L625.4 21.9h43.4c5 43.8 8.5 80.8 10.7 111.1 2.2-30.6 4.5-57.8 6.8-81.5l2.7-29.6h43.4z"/><path id="1" class="fil3" d="M780.7 21.9v158.8h-41.2V21.9z"/><path id="2" class="fil3" d="M797 21.9h68.6v31.7h-27.3v30.3h25.6V114h-25.6v35h30.2v31.7H797z"/><path id="3" class="fil3" d="M967.1 70h-38.2V58.4c0-5.5-.5-9-1.4-10.5-1-1.5-2.6-2.2-4.9-2.2-2.4 0-4.3 1-5.6 3-1.2 2-1.9 5-1.9 9.2 0 5.3.8 9.2 2.2 12 1.4 2.6 5.3 5.8 11.6 9.6 18.2 11 29.7 20 34.5 27 4.7 7 7.1 18.2 7.1 33.8 0 11.3-1.3 19.6-4 25a31 31 0 01-15.2 13.4 59.7 59.7 0 01-26.3 5.5c-11 0-20.4-2.1-28.2-6.3a30.8 30.8 0 01-15.3-16 82.8 82.8 0 01-3.6-27.5v-10.4h38.2v19.3c0 6 .6 9.7 1.6 11.5 1 1.7 3 2.5 5.7 2.5 2.8 0 4.8-1 6.1-3.3 1.3-2 2-5.3 2-9.5 0-9.4-1.3-15.5-3.8-18.3-2.6-2.9-9-7.7-19.2-14.5s-17-11.7-20.3-14.8c-3.3-3-6-7.3-8.2-12.8a56.7 56.7 0 01-3.3-20.7c0-12.2 1.6-21 4.7-26.7 3-5.6 8-10 15-13.2a59.2 59.2 0 0124.9-4.7c10.7 0 19.7 1.7 27.2 5.1 7.5 3.5 12.5 7.9 15 13.2a69.7 69.7 0 013.6 26.8V70z"/><path class="fil3" d="M50.5 241c-.1.6-.3 1-.5 1.3a2 2 0 01-1 .7l-1.8.4a41.4 41.4 0 01-7.5-.3c-.4-.2-.7-.4-1-.8l-.4-1.2-6.7-26.8h-.1L25.1 241c0 .5-.2.9-.4 1.2-.2.3-.5.6-1 .7-.4.2-1 .3-1.7.4a44.3 44.3 0 01-7.6-.3c-.5-.2-.8-.4-1-.8l-.4-1.2-9.6-37-.3-1.8c0-.4 0-.8.3-1 .3-.2.8-.4 1.4-.5a34.8 34.8 0 016.3.3c.3 0 .5.2.6.5l.3 1 7.4 32.3 7.7-32.1c0-.4.2-.8.3-1 .2-.3.4-.5.7-.6l1.4-.4a29 29 0 016.3.3l.7.6.4 1 8 32.2 7.3-32.3.3-.9c0-.2.3-.4.6-.5.3-.2.8-.3 1.3-.4a29.3 29.3 0 014.6 0c.6.1 1 .3 1.2.5.2.2.3.6.3 1l-.3 2-9.7 36.8z"/><path id="1" class="fil3" d="M88.5 242.3c0 .3-.2.5-.4.7-.2.1-.5.3-1 .3l-2 .2-2.2-.1-1-.4a1 1 0 01-.2-.7v-2.4a11.9 11.9 0 01-9.2 4c-1.5.1-3-.1-4.2-.5-1.3-.4-2.4-1-3.4-1.8s-1.7-1.8-2.2-3c-.5-1.1-.8-2.5-.8-4 0-1.8.4-3.3 1-4.5a8.2 8.2 0 013-3.1c1.3-.8 3-1.4 4.9-1.8 2-.4 4.2-.6 6.8-.6h2.8v-1.8c0-.9-.1-1.7-.3-2.4-.2-.7-.5-1.2-.9-1.7s-1-.8-1.7-1a13.5 13.5 0 00-6.3.1 19.7 19.7 0 00-4.9 2 3 3 0 01-1.3.5 1 1 0 01-.6-.2l-.5-.7-.3-1a9.4 9.4 0 01.1-3c.1-.4.3-.7.6-1 .3-.4.8-.7 1.6-1a19.2 19.2 0 016-2 22 22 0 019.6.4c1.6.5 3 1.1 4 2a8 8 0 012.2 3.6c.5 1.5.8 3.2.8 5.2v19.7zm-8.1-12.6h-3.1c-1.4 0-2.5.1-3.4.3-1 .2-1.7.5-2.3 1-.6.3-1 .8-1.3 1.3-.2.6-.4 1.2-.4 2 0 1.2.4 2.1 1.2 2.8.8.7 1.8 1 3.2 1a6 6 0 003.2-.8c1-.6 1.9-1.5 2.9-2.6v-5z"/><path id="2" class="fil3" d="M113.2 239.3c0 1 0 1.7-.2 2.2-.1.5-.3.9-.5 1-.2.3-.4.5-.8.6l-1.4.5a14.1 14.1 0 01-3.4.3c-1.6 0-3-.2-4.3-.6-1.1-.4-2.1-1-3-1.9a8 8 0 01-1.6-3.3 17 17 0 01-.6-4.6v-15h-3.5c-.4 0-.8-.2-1-.7a14.5 14.5 0 01-.3-4.2l.3-1 .4-.6.6-.1h3.5v-6.6c0-.2 0-.4.2-.5.1-.2.3-.4.6-.5l1.3-.2a18.5 18.5 0 015.3.2c.3.1.5.3.6.5l.2.5v6.6h6.3l.6.1.4.6.2 1 .1 1.6c0 1.2-.1 2-.3 2.6-.3.5-.6.8-1 .8h-6.3v13.7c0 1.6.2 2.7.7 3.5.5.8 1.4 1.2 2.7 1.2a5.3 5.3 0 002.1-.3l.7-.3.5-.1.4.1s.2.2.2.5a9.1 9.1 0 01.3 2.4z"/><path id="3" class="fil3" d="M140.2 237.5a14.8 14.8 0 01-.2 2.4l-.2.6-.5.7-1.4.9a14 14 0 01-4.7 1.6l-3 .3c-2.2 0-4.2-.3-5.9-1-1.7-.7-3.2-1.8-4.3-3.1-1.2-1.4-2-3-2.7-5a23 23 0 01-.9-6.8c0-2.9.4-5.4 1.1-7.5.7-2.2 1.8-4 3-5.3 1.4-1.4 2.9-2.5 4.7-3.2a16.3 16.3 0 0110.7-.1c.8.3 1.4.5 2 .9l1.2.8.5.6.2.7a8.9 8.9 0 01.2 2.3c0 1.3 0 2.2-.3 2.7-.2.5-.5.8-.8.8a2 2 0 01-1.2-.5l-1.5-1a11 11 0 00-2-1c-.8-.3-1.7-.5-2.8-.5-2.1 0-3.8.9-4.9 2.5-1.1 1.6-1.7 4-1.7 7.2 0 1.6.2 3 .4 4.2a9 9 0 001.3 3c.5.8 1.2 1.4 2 1.8 1 .4 1.9.6 3 .6s2.1-.2 3-.5a11.8 11.8 0 003.6-2.3c.4-.3.7-.5 1-.5.2 0 .4 0 .5.2l.3.6.2 1.1v1.8z"/><path id="4" class="fil3" d="M173.8 242.2c0 .2 0 .4-.2.5 0 .2-.3.3-.6.4l-1.3.3a21.8 21.8 0 01-5.2-.3c-.3 0-.5-.2-.7-.4a1 1 0 01-.2-.5v-16.7c0-1.4 0-2.5-.3-3.3-.2-.8-.5-1.5-.9-2a4 4 0 00-1.5-1.4c-.6-.3-1.3-.5-2.1-.5-1 0-2.1.4-3.2 1.1a17 17 0 00-3.3 3.4v19.4c0 .2 0 .4-.2.5-.1.2-.3.3-.7.4l-1.2.3a21.9 21.9 0 01-5.2-.3c-.3 0-.6-.2-.7-.4a1 1 0 01-.2-.5v-43c0-.3 0-.4.2-.6.1-.2.4-.3.7-.5l1.2-.2a15.6 15.6 0 015.2.2c.4.2.6.3.7.5l.2.6v16c1.4-1.3 2.9-2.3 4.3-3 1.5-.7 3-1 4.6-1 2 0 3.6.3 5 1 1.3.6 2.4 1.5 3.3 2.6.8 1.1 1.4 2.5 1.8 4 .3 1.5.5 3.3.5 5.5v17.9z"/><path id="5" class="fil3" d="M214.4 227.2v14.9c0 .2 0 .4-.2.6l-.7.4-1.4.3a17 17 0 01-5.4-.3c-.4-.1-.6-.2-.7-.4a1 1 0 01-.2-.6v-14.9l-11.5-23c-.5-.8-.7-1.5-.8-2-.2-.4 0-.7.2-1l1.3-.4a40.4 40.4 0 016.6.3c.4.1.6.3.8.5l.5.7 4.7 10.4 1.3 3.2c.5 1 1 2.2 1.4 3.5a132.4 132.4 0 012.6-6.6l4.6-10.4.4-.8c.2-.2.4-.4.8-.5l1.3-.3a33.2 33.2 0 015.1 0c.7.1 1.2.3 1.4.5.3.2.3.6.2 1-.1.5-.4 1-.8 1.9l-11.5 23z"/><path id="6" class="fil3" d="M255.5 227.3c0 2.5-.3 4.7-1 6.8-.6 2-1.6 3.8-3 5.3-1.3 1.4-3 2.6-5 3.4-2 .8-4.2 1.2-7 1.2-2.5 0-4.7-.4-6.7-1a12 12 0 01-7.5-8.3c-.6-2-1-4.3-1-6.8s.4-4.8 1-6.8a13.5 13.5 0 018-8.7c2-.9 4.3-1.3 7-1.3 2.6 0 4.9.4 6.8 1.1a11.9 11.9 0 017.5 8.2c.6 2 .9 4.3.9 6.9zm-8.4.3c0-1.4-.1-2.8-.3-4a9.2 9.2 0 00-1.2-3.1 5.7 5.7 0 00-2.2-2.1 7 7 0 00-3.4-.8c-1.2 0-2.3.3-3.2.7-1 .4-1.7 1.1-2.3 2-.5.8-1 1.9-1.3 3a21.1 21.1 0 000 8.1c.2 1.3.6 2.3 1.1 3.2.5 1 1.3 1.6 2.2 2.1.9.5 2 .7 3.4.7 1.2 0 2.3-.2 3.2-.6 1-.5 1.7-1.1 2.3-2 .6-.8 1-1.9 1.3-3 .3-1.3.4-2.7.4-4.2z"/><path id="7" class="fil3" d="M289.5 242.2l-.1.5c-.1.2-.3.3-.6.4a5 5 0 01-1 .3 15.4 15.4 0 01-4.6-.3c-.2 0-.4-.2-.5-.4a1 1 0 01-.2-.5v-3.4c-1.6 1.7-3.2 3-4.9 3.9a11 11 0 01-5.1 1.3c-2 0-3.7-.3-5-1a8.7 8.7 0 01-3.4-2.7c-.8-1.1-1.4-2.4-1.8-3.9-.3-1.5-.5-3.4-.5-5.6V213c0-.2 0-.4.2-.6.1-.2.3-.3.6-.4l1.3-.2a22 22 0 015.2.2c.4.1.6.2.7.4l.2.6v16.5c0 1.5.1 2.6.3 3.5.2.8.5 1.5.9 2 .4.6.9 1 1.5 1.4a5.4 5.4 0 005.3-.7c1-.8 2.2-1.9 3.4-3.3V213c0-.2 0-.4.2-.6 0-.2.3-.3.6-.4l1.3-.2a21.9 21.9 0 015.2.2c.3.1.5.2.6.4.2.2.2.4.2.6v29.2z"/><path id="8" class="fil3" d="M316.4 215.7a20.5 20.5 0 01-.2 3.1c-.1.3-.2.5-.4.6l-.5.1h-.6l-.7-.3-1-.3h-1c-.5 0-1 0-1.4.2-.4.2-1 .5-1.4.9l-1.5 1.5c-.6.7-1.1 1.5-1.7 2.5v18.2l-.2.5-.7.4-1.2.3a21.9 21.9 0 01-5.3-.3c-.3 0-.5-.2-.6-.4a1 1 0 01-.2-.5V213l.1-.6c.1-.2.3-.3.6-.4l1.1-.3a15.6 15.6 0 014.5.3l.5.4.2.6v3.6a23 23 0 012.1-2.7l2-1.7a6 6 0 011.8-.8 7 7 0 012.7-.2 10.1 10.1 0 012 .4l.5.3.2.4.2.5v1l.1 1.9z"/><path id="9" class="fil3" d="M360.6 204.5v1.6l-.3 1.1-.4.6-.5.2h-13.8v11.4h13l.4.1c.2.1.3.3.4.6.2.2.2.6.3 1a14.4 14.4 0 010 3.3c0 .4-.1.8-.3 1 0 .4-.2.6-.4.7l-.5.2h-13V242l-.1.6c-.1.2-.4.4-.7.5l-1.3.3a17 17 0 01-5.5-.3c-.3-.1-.6-.3-.7-.5a1 1 0 01-.2-.6v-38.3c0-1 .2-1.7.7-2.1.5-.4 1.1-.6 1.8-.6h19.9l.5.1.4.6.3 1.1v1.7z"/><path id="10" class="fil3" d="M390 242.3c0 .3-.1.5-.3.7-.2.1-.6.3-1 .3l-2.1.2-2.2-.1-1-.4a1 1 0 01-.2-.7v-2.4a11.9 11.9 0 01-9.2 4c-1.5.1-3-.1-4.2-.5-1.3-.4-2.4-1-3.3-1.8a8 8 0 01-2.2-3c-.6-1.1-.8-2.5-.8-4a8.2 8.2 0 014-7.5c1.2-1 2.9-1.5 4.8-2 2-.3 4.2-.5 6.8-.5h2.8v-1.8c0-.9 0-1.7-.2-2.4a4 4 0 00-1-1.7c-.4-.5-1-.8-1.6-1a13.5 13.5 0 00-6.3.1 19.7 19.7 0 00-5 2 3 3 0 01-1.3.5 1 1 0 01-.6-.2l-.4-.7c-.2-.3-.3-.6-.3-1a8.2 8.2 0 010-3c.1-.4.4-.7.7-1 .3-.4.8-.7 1.6-1a22.2 22.2 0 019.7-2.2c2.3 0 4.2.2 5.8.6 1.6.5 3 1.1 4 2a8 8 0 012.3 3.6c.5 1.5.7 3.2.7 5.2v19.7zm-8-12.6h-3.2c-1.3 0-2.4.1-3.4.3-.9.2-1.7.5-2.2 1-.6.3-1 .8-1.3 1.3-.3.6-.4 1.2-.4 2 0 1.2.4 2.1 1.1 2.8.8.7 1.8 1 3.2 1a6 6 0 003.2-.8c1-.6 2-1.5 3-2.6v-5z"/><path id="11" class="fil3" d="M424 213l-.1.3v.5l-.2.7-.2.8-8.7 26.4c-.1.4-.3.7-.5.9-.2.2-.5.4-.9.5-.4.2-1 .2-1.7.3a53.6 53.6 0 01-7.4-.3c-.4-.1-.7-.3-.8-.5l-.5-.9-8.7-26.4a19.2 19.2 0 01-.4-2v-.4l.1-.5.7-.4 1.2-.3a27.5 27.5 0 015.4.3c.3 0 .6.2.7.4l.3.7 6.6 21.4.2.8.2-.8 6.5-21.4c0-.3.1-.5.3-.7.1-.2.4-.3.7-.4l1.2-.2a22 22 0 015.2.2c.2 0 .4.2.5.4.2.1.2.3.2.5z"/><path id="12" class="fil3" d="M457.4 227.3c0 2.5-.3 4.7-1 6.8a13.1 13.1 0 01-8 8.7c-1.9.8-4.2 1.2-6.9 1.2a19 19 0 01-6.7-1 12 12 0 01-7.6-8.3c-.6-2-.9-4.3-.9-6.8s.4-4.8 1-6.8a13.6 13.6 0 018-8.7c2-.9 4.3-1.3 7-1.3 2.5 0 4.8.4 6.7 1.1a12 12 0 017.5 8.2c.6 2 1 4.3 1 6.9zm-8.3.3c0-1.4-.2-2.8-.4-4a9.2 9.2 0 00-1.2-3.1 5.8 5.8 0 00-2.1-2.1 7 7 0 00-3.5-.8c-1.2 0-2.2.3-3.2.7-.9.4-1.6 1.1-2.2 2-.6.8-1 1.9-1.3 3a20.3 20.3 0 000 8.1c.1 1.3.5 2.3 1 3.2.6 1 1.3 1.6 2.2 2.1 1 .5 2 .7 3.4.7 1.3 0 2.3-.2 3.3-.6.9-.5 1.6-1.1 2.2-2 .6-.8 1-1.9 1.3-3 .3-1.3.4-2.7.4-4.2z"/><path id="13" class="fil3" d="M482.6 215.7a20.5 20.5 0 01-.3 3.1c0 .3-.2.5-.3.6l-.5.1h-.6l-.8-.3-.8-.3h-1.1c-.5 0-1 0-1.4.2-.4.2-1 .5-1.4.9l-1.5 1.5a24 24 0 00-1.7 2.5v18.2l-.2.5-.7.4-1.3.3a22 22 0 01-5.2-.3c-.3 0-.5-.2-.6-.4a1 1 0 01-.2-.5V213l.1-.6c.1-.2.3-.3.6-.4l1-.3a15.8 15.8 0 014.6.3l.5.4.2.6v3.6a21 21 0 014-4.4 6 6 0 013.7-1 10.1 10.1 0 011.9.1l.9.3.6.3.2.4.2.5v1l.1 1.9z"/><path id="14" class="fil3" d="M495.8 242.2c0 .2 0 .4-.2.5 0 .2-.3.3-.6.4l-1.3.3a21.6 21.6 0 01-5.2-.3c-.3 0-.5-.2-.7-.4a1 1 0 01-.2-.5V213l.2-.6.7-.4c.3-.2.7-.3 1.2-.3a15.6 15.6 0 015.3.3c.3 0 .5.2.6.4.2.2.2.3.2.6v29zm.7-39.1c0 1.6-.3 2.8-1 3.4-.7.6-2 1-3.8 1-1.8 0-3-.3-3.7-1-.6-.6-1-1.7-1-3.3 0-1.6.4-2.8 1-3.4.7-.7 2-1 3.8-1 1.8 0 3 .3 3.7 1 .7.6 1 1.7 1 3.3z"/><path id="15" class="fil3" d="M521.2 239.3c0 1 0 1.7-.2 2.2-.1.5-.3.9-.5 1-.1.3-.4.5-.8.6a14.3 14.3 0 01-4.8.8c-1.6 0-3-.2-4.2-.6-1.2-.4-2.2-1-3-1.9a8 8 0 01-1.7-3.3c-.4-1.3-.6-2.8-.6-4.6v-15H502c-.4 0-.7-.2-1-.7a12.1 12.1 0 01-.3-4.2l.3-1c.1-.3.3-.5.5-.6l.5-.1h3.5v-6.6c0-.2 0-.4.2-.5.1-.2.3-.4.6-.5l1.3-.2a18.3 18.3 0 015.3.2c.3.1.5.3.6.5l.2.5v6.6h6.3l.6.1.4.6.2 1a12.1 12.1 0 01-.2 4.2c-.2.5-.6.8-1 .8h-6.3v13.7c0 1.6.3 2.7.8 3.5.5.8 1.3 1.2 2.6 1.2a5.2 5.2 0 002.1-.3l.7-.3.5-.1.4.1s.2.2.2.5l.2.9.1 1.5z"/><path id="16" class="fil3" d="M553 226.7c0 1-.1 1.8-.6 2.3-.4.4-1 .7-1.8.7h-17.7c0 1.2.1 2.3.4 3.3.3 1 .8 2 1.4 2.6.7.7 1.5 1.2 2.5 1.6 1 .4 2.2.6 3.6.6a20.1 20.1 0 006.6-1l2-.7 1.2-.3h.5l.4.5.1.8a16.9 16.9 0 01-.2 4l-.4.5c-.1.2-.5.4-1.1.7l-2.4.7a31.7 31.7 0 01-7.4 1c-2.6 0-4.9-.3-6.8-1-2-.6-3.6-1.6-4.9-3-1.3-1.3-2.2-3-2.9-5-.6-2-1-4.4-1-7.1 0-2.6.4-5 1-7 .7-2 1.7-3.8 3-5.3 1.3-1.4 2.8-2.5 4.7-3.3a16 16 0 016.2-1.2c2.4 0 4.5.4 6.2 1.1a11.3 11.3 0 016.7 7.5c.5 1.8.8 3.7.8 5.7v1.3zm-7.8-2.3c0-2.3-.4-4.1-1.4-5.5-1-1.3-2.5-2-4.6-2-1 0-2 .3-2.7.6-.8.4-1.4 1-2 1.6-.5.7-.9 1.5-1.1 2.4-.3 1-.5 1.9-.5 2.9h12.3z"/><path id="17" class="fil3" d="M624.4 242c0 .3 0 .5-.2.7 0 .2-.3.3-.6.4l-1.3.3a15.6 15.6 0 01-5.2-.3c-.3-.1-.5-.2-.6-.4a1 1 0 01-.2-.6v-34.4L604 242l-.5.7-.8.4-1.2.2a34.6 34.6 0 01-3.8 0c-.5 0-1-.2-1.3-.3l-.8-.4-.4-.6-11.7-34.4h-.1V242c0 .2 0 .4-.2.6l-.6.4-1.3.3a15.2 15.2 0 01-5.2-.3l-.6-.4a1 1 0 01-.2-.6v-37.7c0-1.1.3-2 .9-2.6.5-.5 1.3-.8 2.3-.8h5.6c1 0 1.9 0 2.6.2a4.6 4.6 0 013.2 2.3l.9 2.3 9 25.2h.2l9.4-25.1c.2-1 .5-1.7.9-2.3.3-.7.7-1.2 1.2-1.6a4 4 0 011.5-.8c.6-.2 1.4-.2 2.2-.2h5.7c.6 0 1.1 0 1.5.2.5.1.8.4 1 .7.4.3.6.6.7 1l.2 1.5v37.7z"/><path id="18" class="fil3" d="M662.5 227.3c0 2.5-.4 4.7-1 6.8-.7 2-1.6 3.8-3 5.3-1.3 1.4-3 2.6-5 3.4-2 .8-4.3 1.2-7 1.2-2.5 0-4.8-.4-6.7-1a12 12 0 01-7.5-8.3c-.7-2-1-4.3-1-6.8s.4-4.8 1-6.8a13.5 13.5 0 018-8.7c2-.9 4.3-1.3 7-1.3 2.6 0 4.8.4 6.7 1.1a11.9 11.9 0 017.6 8.2c.6 2 .9 4.3.9 6.9zm-8.4.3c0-1.4-.1-2.8-.4-4a9.2 9.2 0 00-1.2-3.1 5.7 5.7 0 00-2.1-2.1 7 7 0 00-3.4-.8c-1.3 0-2.3.3-3.2.7-1 .4-1.7 1.1-2.3 2-.6.8-1 1.9-1.3 3a21.1 21.1 0 000 8.1c.1 1.3.5 2.3 1 3.2.6 1 1.3 1.6 2.2 2.1 1 .5 2 .7 3.4.7 1.3 0 2.3-.2 3.3-.6.9-.5 1.6-1.1 2.2-2 .6-.8 1-1.9 1.3-3 .3-1.3.5-2.7.5-4.2z"/><path id="19" class="fil3" d="M695.5 213v.3l-.1.5-.2.7c0 .2 0 .5-.2.8l-8.7 26.4c0 .4-.2.7-.4.9-.2.2-.5.4-1 .5-.4.2-1 .2-1.6.3a54.3 54.3 0 01-7.4-.3c-.4-.1-.7-.3-.9-.5l-.5-.9-8.6-26.4a14.3 14.3 0 01-.5-2v-.4c0-.2 0-.4.2-.5.1-.2.3-.3.6-.4l1.3-.3a27.2 27.2 0 015.4.3c.3 0 .5.2.6.4l.4.7 6.6 21.4.2.8.1-.8 6.5-21.4c0-.3.2-.5.3-.7l.7-.4 1.2-.2a22 22 0 015.2.2c.3 0 .5.2.6.4l.2.5z"/><path id="20" class="fil3" d="M708.5 242.2c0 .2 0 .4-.2.5-.1.2-.4.3-.7.4l-1.2.3a21.9 21.9 0 01-5.2-.3c-.4 0-.6-.2-.7-.4a1 1 0 01-.2-.5V213c0-.3 0-.4.2-.6.1-.2.3-.3.7-.4.3-.2.7-.3 1.2-.3a15.6 15.6 0 015.2.3c.3 0 .6.2.7.4l.2.6v29zm.7-39.1c0 1.6-.4 2.8-1 3.4-.7.6-2 1-3.8 1-1.8 0-3.1-.3-3.7-1-.7-.6-1-1.7-1-3.3 0-1.6.3-2.8 1-3.4.6-.7 1.9-1 3.8-1 1.8 0 3 .3 3.7 1 .6.6 1 1.7 1 3.3z"/><path id="21" class="fil3" d="M743.5 226.7c0 1-.3 1.8-.7 2.3-.5.4-1 .7-1.9.7h-17.6c0 1.2.1 2.3.4 3.3.3 1 .8 2 1.4 2.6.6.7 1.5 1.2 2.5 1.6 1 .4 2.2.6 3.6.6a20 20 0 006.6-1l2-.7 1.2-.3h.5l.3.5.2.8a12.8 12.8 0 010 2.6v.9l-.3.6-.3.4a4 4 0 01-1.2.7l-2.4.7a31.4 31.4 0 01-7.4 1c-2.5 0-4.8-.3-6.7-1-2-.6-3.6-1.6-5-3-1.2-1.3-2.2-3-2.8-5-.6-2-1-4.4-1-7.1 0-2.6.4-5 1-7 .7-2 1.7-3.8 3-5.3 1.3-1.4 2.8-2.5 4.6-3.3 1.9-.8 4-1.2 6.2-1.2 2.5 0 4.5.4 6.3 1.1a11.3 11.3 0 016.7 7.5c.5 1.8.8 3.7.8 5.7v1.3zm-8-2.3c0-2.3-.4-4.1-1.4-5.5-1-1.3-2.5-2-4.5-2-1 0-2 .3-2.8.6-.7.4-1.4 1-1.9 1.6-.5.7-.9 1.5-1.2 2.4-.2 1-.4 1.9-.4 2.9h12.2z"/><path id="22" class="fil3" d="M770.7 233.9c0 1.7-.4 3.1-1 4.4a8.7 8.7 0 01-2.6 3.2c-1.1.8-2.5 1.4-4 1.9a18.6 18.6 0 01-8.1.3 18.8 18.8 0 01-4.6-1.4 5 5 0 01-1.2-.7l-.5-1c-.2-.6-.2-1.3-.2-2.2v-1.6l.2-.9.4-.4.4-.1c.3 0 .6.1 1.1.4a18.1 18.1 0 004.2 1.8 10.6 10.6 0 005 .2c.7-.1 1.2-.4 1.6-.7.4-.2.7-.6 1-1l.3-1.5c0-.7-.2-1.3-.6-1.7-.4-.5-1-.9-1.6-1.3a50.6 50.6 0 01-7.4-3.3 10 10 0 01-2.3-1.7 8.2 8.2 0 01-2.2-6 9 9 0 01.8-3.9 8.3 8.3 0 012.4-3c1-.8 2.2-1.4 3.7-1.9a16.6 16.6 0 017.6-.5 20.6 20.6 0 014.1 1.2l1 .5a1.5 1.5 0 01.7 1.1 9.1 9.1 0 01.2 2.1 14 14 0 01-.2 2.3c-.1.3-.2.4-.4.5l-.4.1-1-.3a17.2 17.2 0 00-3.6-1.5 10 10 0 00-4.8-.1 4 4 0 00-1.3.6c-.4.3-.6.7-.8 1l-.3 1.2c0 .7.3 1.3.7 1.8l1.6 1.2 2.3 1a60.4 60.4 0 015.2 2.2c.9.5 1.6 1 2.3 1.8a8 8 0 012.3 5.9z"/><path id="23" class="fil3" d="M830.2 221.6c0 3.5-.5 6.7-1.3 9.4-.9 2.8-2.2 5.2-4 7-1.6 2-3.7 3.5-6.3 4.5-2.5 1-5.4 1.5-8.7 1.5a26 26 0 01-8.6-1.3 14.8 14.8 0 01-9.8-10.7 34 34 0 01.1-18.8c.9-2.8 2.2-5.1 3.9-7 1.7-2 3.8-3.4 6.3-4.4a26 26 0 0117.3-.3c2.4.9 4.5 2.2 6.1 4 1.6 1.7 2.9 4 3.7 6.6.8 2.7 1.3 5.9 1.3 9.5zm-9 .5c0-2.3-.2-4.3-.6-6.1-.3-1.8-.9-3.4-1.7-4.7-.8-1.3-2-2.3-3.3-3-1.4-.7-3.2-1-5.2-1-2.1 0-3.9.4-5.3 1.2a9.7 9.7 0 00-3.4 3.1c-.9 1.4-1.5 3-1.9 4.7a33.5 33.5 0 000 11.9c.4 1.8 1 3.4 1.8 4.7.8 1.3 2 2.3 3.3 3 1.4.7 3.1 1 5.2 1s3.9-.4 5.3-1.2a9.5 9.5 0 003.4-3.2c.9-1.3 1.5-2.9 1.8-4.7.4-1.8.6-3.7.6-5.7z"/><path id="24" class="fil3" d="M864.6 242.2c0 .2 0 .4-.2.5 0 .2-.3.3-.6.4l-1.3.3a22 22 0 01-5.2-.3c-.3 0-.5-.2-.7-.4a1 1 0 01-.2-.5v-16.7a14 14 0 00-.3-3.3c-.2-.8-.5-1.5-.9-2a4 4 0 00-3.6-1.9c-1 0-2.1.4-3.2 1.1-1 .8-2.1 2-3.3 3.4v19.4c0 .2 0 .4-.2.5-.1.2-.3.3-.6.4l-1.3.3a21.6 21.6 0 01-5.2-.3c-.3 0-.6-.2-.7-.4a1 1 0 01-.2-.5V213c0-.2 0-.4.2-.6 0-.2.3-.3.6-.4l1-.2a15.8 15.8 0 014.5.2l.6.4.1.6v3.4c1.6-1.8 3.3-3 5-4a11 11 0 015.1-1.3c2 0 3.6.4 5 1 1.4.7 2.4 1.6 3.3 2.7.8 1.1 1.4 2.4 1.8 4 .4 1.4.5 3.2.5 5.3v18z"/><path id="25" class="fil3" d="M880.9 242.2c0 .2 0 .4-.2.5l-.7.4-1.2.3a21.6 21.6 0 01-5.3-.3c-.3 0-.5-.2-.6-.4a1 1 0 01-.2-.5v-43c0-.3 0-.4.2-.6.1-.2.3-.4.6-.5l1.3-.2a15.6 15.6 0 015.2.2l.7.5.2.6v43z"/><path id="26" class="fil3" d="M897.2 242.2c0 .2 0 .4-.2.5 0 .2-.3.3-.6.4l-1.3.3a21.8 21.8 0 01-5.2-.3c-.3 0-.5-.2-.7-.4a.9.9 0 01-.2-.5V213l.2-.6.7-.4c.3-.2.7-.3 1.3-.3a15.6 15.6 0 015.2.3c.3 0 .5.2.6.4.2.2.2.3.2.6v29zm.7-39.1c0 1.6-.3 2.8-1 3.4-.7.6-2 1-3.8 1-1.8 0-3-.3-3.7-1-.6-.6-1-1.7-1-3.3 0-1.6.4-2.8 1-3.4.7-.7 2-1 3.8-1 1.8 0 3 .3 3.7 1 .7.6 1 1.7 1 3.3z"/><path id="27" class="fil3" d="M933.1 242.2c0 .2 0 .4-.2.5 0 .2-.3.3-.6.4l-1.3.3a22 22 0 01-5.2-.3c-.3 0-.5-.2-.7-.4a1 1 0 01-.2-.5v-16.7a14 14 0 00-.3-3.3c-.2-.8-.5-1.5-.9-2a4 4 0 00-3.6-1.9c-1 0-2.1.4-3.2 1.1-1 .8-2.1 2-3.3 3.4v19.4c0 .2 0 .4-.2.5-.1.2-.3.3-.6.4a7 7 0 01-1.3.3 21.8 21.8 0 01-5.2-.3c-.3 0-.6-.2-.7-.4a.9.9 0 01-.2-.5V213c0-.2 0-.4.2-.6 0-.2.3-.3.6-.4l1-.2a15.7 15.7 0 014.5.2c.3.1.4.2.5.4.2.2.2.4.2.6v3.4a18 18 0 015-4 11 11 0 015.1-1.3c2 0 3.6.4 5 1 1.4.7 2.4 1.6 3.3 2.7.8 1.1 1.4 2.4 1.8 4 .3 1.4.5 3.2.5 5.3v18z"/><path id="28" class="fil3" d="M968 226.7c0 1-.3 1.8-.7 2.3-.4.4-1 .7-1.8.7h-17.7c0 1.2.1 2.3.4 3.3.3 1 .8 2 1.4 2.6.7.7 1.5 1.2 2.5 1.6 1 .4 2.2.6 3.6.6a20.1 20.1 0 006.6-1l2-.7 1.2-.3h.5c.1.2.3.3.3.5l.2.8a16.9 16.9 0 01-.3 4c0 .2-.2.4-.3.5-.1.2-.5.4-1.2.7l-2.4.7a31.7 31.7 0 01-7.3 1c-2.6 0-4.9-.3-6.8-1-2-.6-3.6-1.6-4.9-3-1.3-1.3-2.3-3-2.9-5-.6-2-1-4.4-1-7.1 0-2.6.4-5 1-7 .7-2 1.7-3.8 3-5.3 1.3-1.4 2.8-2.5 4.7-3.3a16 16 0 016.2-1.2c2.4 0 4.5.4 6.2 1.1a11.3 11.3 0 016.7 7.5c.5 1.8.8 3.7.8 5.7v1.3zm-8-2.3c.1-2.3-.4-4.1-1.4-5.5-1-1.3-2.5-2-4.5-2-1 0-2 .3-2.7.6-.8.4-1.5 1-2 1.6-.5.7-.9 1.5-1.1 2.4-.3 1-.5 1.9-.5 2.9H960z"/></g></g></svg>